G04 Layer: TopLayer*
G04 EasyEDA Pro v3.2.148, 2026-08-14 11:03:23*
G04 Gerber Generator version 0.3*
G04 Scale: 100 percent, Rotated: No, Reflected: No*
G04 Dimensions in millimeters*
G04 Leading zeros omitted, absolute positions, 4 integers and 5 decimals*
G04 Generated by one-click*
G04 Object Configs: Pad,Via,Track,Text,Image,Dimension,BoardOutline,BoardCutout,CopperFilled,SolidRegion,FPCStiffener,Line,PlaneZone,ComponentProperty,ComponentSilkscreen,TearDrop*
G04 Layer Configs: 1,2,3,4,5,6,7,8,9,10,11,13,14,56*
G04 Copper Areas: 0*
%FSLAX45Y45*%
%MOMM*%
%ADD10C,1.8*%
%ADD11R,1.7X1.7*%
%ADD12C,1.7*%
%ADD13R,1.6X1.6*%
%ADD14C,1.6*%
%ADD15C,1.8808*%
%ADD16C,1.8796*%
%ADD17C,0.254*%
G75*


G04 Pad Start*
G54D10*
G01X-6328600Y3695700D03*
G01X-6828599Y3695700D03*
G54D11*
G01X-8216900Y3683000D03*
G54D12*
G01X-7962900Y3683000D03*
G54D13*
G01X-3352800Y3683000D03*
G54D14*
G01X-3098800Y3683000D03*
G54D16*
G01X-5435600Y3683000D03*
G01X-4419600Y3683000D03*
G04 Pad End*

G04 Track Start*
G54D17*
G01X-4419600Y3683000D02*
G01X-3352800Y3683000D01*
G01X-3098800Y3683000D02*
G01X-3153344Y3683000D01*
G01X-6982635Y3683000D02*
G01X-7962900Y3683000D01*
G01X-3153344Y3683000D02*
G01X-3275224Y3561120D01*
G01X-6860755Y3561120D01*
G01X-6341300Y3683000D02*
G01X-6328600Y3695700D01*
G01X-6877435Y3577800D02*
G01X-6982635Y3683000D01*
G01X-6877435Y3577800D02*
G01X-6779764Y3577800D01*
G01X-6674564Y3683000D01*
G01X-6341300Y3683000D01*
G01X-6860755Y3561120D02*
G01X-6877435Y3577800D01*
G01X-5435600Y3683000D02*
G01X-6149165Y3683000D01*
G01X-6279765Y3813600D01*
G01X-7991965Y3813600D01*
G01X-8204200Y3695700D02*
G01X-8216900Y3683000D01*
G01X-6828599Y3695700D02*
G01X-6944989Y3695700D01*
G01X-8009665Y3795900D02*
G01X-8109865Y3695700D01*
G01X-8204200Y3695700D01*
G01X-6944989Y3695700D02*
G01X-7045189Y3795900D01*
G01X-8009665Y3795900D01*
G01X-7991965Y3813600D02*
G01X-8009665Y3795900D01*
G04 Track End*

M02*

