G04 Layer: DrillDrawingLayer*
G04 EasyEDA Pro v3.2.148, 2026-08-14 11:03:23*
G04 Gerber Generator version 0.3*
G04 Scale: 100 percent, Rotated: No, Reflected: No*
G04 Dimensions in millimeters*
G04 Leading zeros omitted, absolute positions, 4 integers and 5 decimals*
G04 Generated by one-click*
G04 Object Configs: Pad,Via,Track,Text,Image,Dimension,BoardOutline,BoardCutout,CopperFilled,SolidRegion,FPCStiffener,Line,PlaneZone,ComponentProperty,ComponentSilkscreen,TearDrop*
G04 Layer Configs: 1,2,3,4,5,6,7,8,9,10,11,13,14,56*
G04 Copper Areas: 0*
%FSLAX45Y45*%
%MOMM*%
%AMIconRect*4,1,4,0.28,-0.28,-0.28,-0.28,-0.28,0.28,0.28,0.28,0.28,-0.28,0*4,0,4,0.233333,-0.233333,0.233333,0.233333,-0.233333,0.233333,-0.233333,-0.233333,0.233333,-0.233333,0*%
%ADD10IconRect*%
%ADD11C,0.616X0.522667*%
%ADD12C,0.2032*%
%ADD13C,0.254*%
G75*


G04 Drill Drawing Start*
G54D10*
G01X-5435600Y3683000D03*
G01X-4419600Y3683000D03*
G54D11*
G01X-8216900Y3683000D03*
G01X-7962900Y3683000D03*
G01X-6828602Y3695700D03*
G01X-6328598Y3695700D03*
G01X-3352800Y3683000D03*
G01X-3098800Y3683000D03*
G04 Drill Drawing End*

G04 Text Start*
G54D12*
G01X-404654Y4261394D02*
G01X-404654Y4141252D01*
G01X-404654Y4261394D02*
G01X-358934Y4141252D01*
G01X-313214Y4261394D02*
G01X-358934Y4141252D01*
G01X-313214Y4261394D02*
G01X-313214Y4141252D01*
G01X-196882Y4221262D02*
G01X-196882Y4141252D01*
G01X-196882Y4204244D02*
G01X-208312Y4215674D01*
G01X-219742Y4221262D01*
G01X-236760Y4221262D01*
G01X-248190Y4215674D01*
G01X-259620Y4204244D01*
G01X-265462Y4186972D01*
G01X-265462Y4175542D01*
G01X-259620Y4158524D01*
G01X-248190Y4147094D01*
G01X-236760Y4141252D01*
G01X-219742Y4141252D01*
G01X-208312Y4147094D01*
G01X-196882Y4158524D01*
G01X-149130Y4221262D02*
G01X-149130Y4141252D01*
G01X-149130Y4186972D02*
G01X-143288Y4204244D01*
G01X-131858Y4215674D01*
G01X-120428Y4221262D01*
G01X-103410Y4221262D01*
G01X-55658Y4261394D02*
G01X-55658Y4141252D01*
G01X1492Y4221262D02*
G01X-55658Y4164112D01*
G01X-32798Y4186972D02*
G01X7334Y4141252D01*
G01X1132626Y4232692D02*
G01X1126784Y4244122D01*
G01X1115354Y4255552D01*
G01X1103924Y4261394D01*
G01X1081064Y4261394D01*
G01X1069634Y4255552D01*
G01X1058204Y4244122D01*
G01X1052616Y4232692D01*
G01X1046774Y4215674D01*
G01X1046774Y4186972D01*
G01X1052616Y4169954D01*
G01X1058204Y4158524D01*
G01X1069634Y4147094D01*
G01X1081064Y4141252D01*
G01X1103924Y4141252D01*
G01X1115354Y4147094D01*
G01X1126784Y4158524D01*
G01X1132626Y4169954D01*
G01X1209080Y4221262D02*
G01X1197650Y4215674D01*
G01X1186220Y4204244D01*
G01X1180378Y4186972D01*
G01X1180378Y4175542D01*
G01X1186220Y4158524D01*
G01X1197650Y4147094D01*
G01X1209080Y4141252D01*
G01X1226098Y4141252D01*
G01X1237528Y4147094D01*
G01X1248958Y4158524D01*
G01X1254800Y4175542D01*
G01X1254800Y4186972D01*
G01X1248958Y4204244D01*
G01X1237528Y4215674D01*
G01X1226098Y4221262D01*
G01X1209080Y4221262D01*
G01X1302552Y4221262D02*
G01X1302552Y4164112D01*
G01X1308394Y4147094D01*
G01X1319824Y4141252D01*
G01X1336842Y4141252D01*
G01X1348272Y4147094D01*
G01X1365544Y4164112D01*
G01X1365544Y4221262D02*
G01X1365544Y4141252D01*
G01X1413296Y4221262D02*
G01X1413296Y4141252D01*
G01X1413296Y4198402D02*
G01X1430568Y4215674D01*
G01X1441998Y4221262D01*
G01X1459016Y4221262D01*
G01X1470446Y4215674D01*
G01X1476288Y4198402D01*
G01X1476288Y4141252D01*
G01X1541312Y4261394D02*
G01X1541312Y4164112D01*
G01X1546900Y4147094D01*
G01X1558330Y4141252D01*
G01X1569760Y4141252D01*
G01X1524040Y4221262D02*
G01X1564172Y4221262D01*
G01X2540947Y4244122D02*
G01X2529517Y4255552D01*
G01X2512499Y4261394D01*
G01X2489639Y4261394D01*
G01X2472367Y4255552D01*
G01X2460937Y4244122D01*
G01X2460937Y4232692D01*
G01X2466779Y4221262D01*
G01X2472367Y4215674D01*
G01X2483797Y4209832D01*
G01X2518087Y4198402D01*
G01X2529517Y4192814D01*
G01X2535359Y4186972D01*
G01X2540947Y4175542D01*
G01X2540947Y4158524D01*
G01X2529517Y4147094D01*
G01X2512499Y4141252D01*
G01X2489639Y4141252D01*
G01X2472367Y4147094D01*
G01X2460937Y4158524D01*
G01X2588699Y4261394D02*
G01X2594541Y4255552D01*
G01X2600129Y4261394D01*
G01X2594541Y4266982D01*
G01X2588699Y4261394D01*
G01X2594541Y4221262D02*
G01X2594541Y4141252D01*
G01X2710873Y4221262D02*
G01X2647881Y4141252D01*
G01X2647881Y4221262D02*
G01X2710873Y4221262D01*
G01X2647881Y4141252D02*
G01X2710873Y4141252D01*
G01X2758625Y4186972D02*
G01X2827205Y4186972D01*
G01X2827205Y4198402D01*
G01X2821617Y4209832D01*
G01X2815775Y4215674D01*
G01X2804345Y4221262D01*
G01X2787327Y4221262D01*
G01X2775897Y4215674D01*
G01X2764467Y4204244D01*
G01X2758625Y4186972D01*
G01X2758625Y4175542D01*
G01X2764467Y4158524D01*
G01X2775897Y4147094D01*
G01X2787327Y4141252D01*
G01X2804345Y4141252D01*
G01X2815775Y4147094D01*
G01X2827205Y4158524D01*
G01X6343727Y4261394D02*
G01X6343727Y4141252D01*
G01X6343727Y4261394D02*
G01X6395289Y4261394D01*
G01X6412307Y4255552D01*
G01X6418149Y4249964D01*
G01X6423737Y4238534D01*
G01X6423737Y4221262D01*
G01X6418149Y4209832D01*
G01X6412307Y4204244D01*
G01X6395289Y4198402D01*
G01X6343727Y4198402D01*
G01X6471489Y4261394D02*
G01X6471489Y4141252D01*
G01X6587821Y4221262D02*
G01X6587821Y4141252D01*
G01X6587821Y4204244D02*
G01X6576391Y4215674D01*
G01X6564961Y4221262D01*
G01X6547943Y4221262D01*
G01X6536513Y4215674D01*
G01X6525083Y4204244D01*
G01X6519241Y4186972D01*
G01X6519241Y4175542D01*
G01X6525083Y4158524D01*
G01X6536513Y4147094D01*
G01X6547943Y4141252D01*
G01X6564961Y4141252D01*
G01X6576391Y4147094D01*
G01X6587821Y4158524D01*
G01X6652845Y4261394D02*
G01X6652845Y4164112D01*
G01X6658433Y4147094D01*
G01X6669863Y4141252D01*
G01X6681293Y4141252D01*
G01X6635573Y4221262D02*
G01X6675705Y4221262D01*
G01X6729045Y4186972D02*
G01X6797625Y4186972D01*
G01X6797625Y4198402D01*
G01X6792037Y4209832D01*
G01X6786195Y4215674D01*
G01X6774765Y4221262D01*
G01X6757747Y4221262D01*
G01X6746317Y4215674D01*
G01X6734887Y4204244D01*
G01X6729045Y4186972D01*
G01X6729045Y4175542D01*
G01X6734887Y4158524D01*
G01X6746317Y4147094D01*
G01X6757747Y4141252D01*
G01X6774765Y4141252D01*
G01X6786195Y4147094D01*
G01X6797625Y4158524D01*
G01X6913957Y4261394D02*
G01X6913957Y4141252D01*
G01X6913957Y4204244D02*
G01X6902527Y4215674D01*
G01X6891097Y4221262D01*
G01X6874079Y4221262D01*
G01X6862649Y4215674D01*
G01X6851219Y4204244D01*
G01X6845377Y4186972D01*
G01X6845377Y4175542D01*
G01X6851219Y4158524D01*
G01X6862649Y4147094D01*
G01X6874079Y4141252D01*
G01X6891097Y4141252D01*
G01X6902527Y4147094D01*
G01X6913957Y4158524D01*
G01X7885144Y4244122D02*
G01X7873714Y4255552D01*
G01X7856696Y4261394D01*
G01X7833836Y4261394D01*
G01X7816564Y4255552D01*
G01X7805134Y4244122D01*
G01X7805134Y4232692D01*
G01X7810976Y4221262D01*
G01X7816564Y4215674D01*
G01X7827994Y4209832D01*
G01X7862284Y4198402D01*
G01X7873714Y4192814D01*
G01X7879556Y4186972D01*
G01X7885144Y4175542D01*
G01X7885144Y4158524D01*
G01X7873714Y4147094D01*
G01X7856696Y4141252D01*
G01X7833836Y4141252D01*
G01X7816564Y4147094D01*
G01X7805134Y4158524D01*
G01X7932896Y4261394D02*
G01X7932896Y4141252D01*
G01X7932896Y4198402D02*
G01X7950168Y4215674D01*
G01X7961598Y4221262D01*
G01X7978616Y4221262D01*
G01X7990046Y4215674D01*
G01X7995888Y4198402D01*
G01X7995888Y4141252D01*
G01X8112220Y4221262D02*
G01X8112220Y4141252D01*
G01X8112220Y4204244D02*
G01X8100790Y4215674D01*
G01X8089360Y4221262D01*
G01X8072342Y4221262D01*
G01X8060912Y4215674D01*
G01X8049482Y4204244D01*
G01X8043640Y4186972D01*
G01X8043640Y4175542D01*
G01X8049482Y4158524D01*
G01X8060912Y4147094D01*
G01X8072342Y4141252D01*
G01X8089360Y4141252D01*
G01X8100790Y4147094D01*
G01X8112220Y4158524D01*
G01X8159972Y4221262D02*
G01X8159972Y4101374D01*
G01X8159972Y4204244D02*
G01X8171402Y4215674D01*
G01X8182832Y4221262D01*
G01X8200104Y4221262D01*
G01X8211534Y4215674D01*
G01X8222964Y4204244D01*
G01X8228552Y4186972D01*
G01X8228552Y4175542D01*
G01X8222964Y4158524D01*
G01X8211534Y4147094D01*
G01X8200104Y4141252D01*
G01X8182832Y4141252D01*
G01X8171402Y4147094D01*
G01X8159972Y4158524D01*
G01X8276304Y4186972D02*
G01X8344884Y4186972D01*
G01X8344884Y4198402D01*
G01X8339296Y4209832D01*
G01X8333454Y4215674D01*
G01X8322024Y4221262D01*
G01X8305006Y4221262D01*
G01X8293576Y4215674D01*
G01X8282146Y4204244D01*
G01X8276304Y4186972D01*
G01X8276304Y4175542D01*
G01X8282146Y4158524D01*
G01X8293576Y4147094D01*
G01X8305006Y4141252D01*
G01X8322024Y4141252D01*
G01X8333454Y4147094D01*
G01X8344884Y4158524D01*
G01X9236315Y4261394D02*
G01X9282035Y4141252D01*
G01X9327755Y4261394D02*
G01X9282035Y4141252D01*
G01X9375507Y4261394D02*
G01X9381349Y4255552D01*
G01X9386937Y4261394D01*
G01X9381349Y4266982D01*
G01X9375507Y4261394D01*
G01X9381349Y4221262D02*
G01X9381349Y4141252D01*
G01X9503269Y4221262D02*
G01X9503269Y4141252D01*
G01X9503269Y4204244D02*
G01X9491839Y4215674D01*
G01X9480409Y4221262D01*
G01X9463391Y4221262D01*
G01X9451961Y4215674D01*
G01X9440531Y4204244D01*
G01X9434689Y4186972D01*
G01X9434689Y4175542D01*
G01X9440531Y4158524D01*
G01X9451961Y4147094D01*
G01X9463391Y4141252D01*
G01X9480409Y4141252D01*
G01X9491839Y4147094D01*
G01X9503269Y4158524D01*
G01X9653891Y4284254D02*
G01X9551021Y4101374D01*
G01X9701643Y4261394D02*
G01X9701643Y4141252D01*
G01X9701643Y4261394D02*
G01X9753205Y4261394D01*
G01X9770223Y4255552D01*
G01X9776065Y4249964D01*
G01X9781653Y4238534D01*
G01X9781653Y4221262D01*
G01X9776065Y4209832D01*
G01X9770223Y4204244D01*
G01X9753205Y4198402D01*
G01X9701643Y4198402D01*
G01X9897985Y4221262D02*
G01X9897985Y4141252D01*
G01X9897985Y4204244D02*
G01X9886555Y4215674D01*
G01X9875125Y4221262D01*
G01X9858107Y4221262D01*
G01X9846677Y4215674D01*
G01X9835247Y4204244D01*
G01X9829405Y4186972D01*
G01X9829405Y4175542D01*
G01X9835247Y4158524D01*
G01X9846677Y4147094D01*
G01X9858107Y4141252D01*
G01X9875125Y4141252D01*
G01X9886555Y4147094D01*
G01X9897985Y4158524D01*
G01X10014317Y4261394D02*
G01X10014317Y4141252D01*
G01X10014317Y4204244D02*
G01X10002887Y4215674D01*
G01X9991457Y4221262D01*
G01X9974439Y4221262D01*
G01X9963009Y4215674D01*
G01X9951579Y4204244D01*
G01X9945737Y4186972D01*
G01X9945737Y4175542D01*
G01X9951579Y4158524D01*
G01X9963009Y4147094D01*
G01X9974439Y4141252D01*
G01X9991457Y4141252D01*
G01X10002887Y4147094D01*
G01X10014317Y4158524D01*
G01X10905494Y4261394D02*
G01X10905494Y4141252D01*
G01X10905494Y4261394D02*
G01X10957056Y4261394D01*
G01X10974074Y4255552D01*
G01X10979916Y4249964D01*
G01X10985504Y4238534D01*
G01X10985504Y4221262D01*
G01X10979916Y4209832D01*
G01X10974074Y4204244D01*
G01X10957056Y4198402D01*
G01X10905494Y4198402D01*
G01X11101836Y4221262D02*
G01X11101836Y4141252D01*
G01X11101836Y4204244D02*
G01X11090406Y4215674D01*
G01X11078976Y4221262D01*
G01X11061958Y4221262D01*
G01X11050528Y4215674D01*
G01X11039098Y4204244D01*
G01X11033256Y4186972D01*
G01X11033256Y4175542D01*
G01X11039098Y4158524D01*
G01X11050528Y4147094D01*
G01X11061958Y4141252D01*
G01X11078976Y4141252D01*
G01X11090406Y4147094D01*
G01X11101836Y4158524D01*
G01X11218168Y4261394D02*
G01X11218168Y4141252D01*
G01X11218168Y4204244D02*
G01X11206738Y4215674D01*
G01X11195308Y4221262D01*
G01X11178290Y4221262D01*
G01X11166860Y4215674D01*
G01X11155430Y4204244D01*
G01X11149588Y4186972D01*
G01X11149588Y4175542D01*
G01X11155430Y4158524D01*
G01X11166860Y4147094D01*
G01X11178290Y4141252D01*
G01X11195308Y4141252D01*
G01X11206738Y4147094D01*
G01X11218168Y4158524D01*
G01X11473946Y4244122D02*
G01X11462516Y4255552D01*
G01X11445498Y4261394D01*
G01X11422638Y4261394D01*
G01X11405366Y4255552D01*
G01X11393936Y4244122D01*
G01X11393936Y4232692D01*
G01X11399778Y4221262D01*
G01X11405366Y4215674D01*
G01X11416796Y4209832D01*
G01X11451086Y4198402D01*
G01X11462516Y4192814D01*
G01X11468358Y4186972D01*
G01X11473946Y4175542D01*
G01X11473946Y4158524D01*
G01X11462516Y4147094D01*
G01X11445498Y4141252D01*
G01X11422638Y4141252D01*
G01X11405366Y4147094D01*
G01X11393936Y4158524D01*
G01X11521698Y4261394D02*
G01X11521698Y4141252D01*
G01X11521698Y4198402D02*
G01X11538970Y4215674D01*
G01X11550400Y4221262D01*
G01X11567418Y4221262D01*
G01X11578848Y4215674D01*
G01X11584690Y4198402D01*
G01X11584690Y4141252D01*
G01X11701022Y4221262D02*
G01X11701022Y4141252D01*
G01X11701022Y4204244D02*
G01X11689592Y4215674D01*
G01X11678162Y4221262D01*
G01X11661144Y4221262D01*
G01X11649714Y4215674D01*
G01X11638284Y4204244D01*
G01X11632442Y4186972D01*
G01X11632442Y4175542D01*
G01X11638284Y4158524D01*
G01X11649714Y4147094D01*
G01X11661144Y4141252D01*
G01X11678162Y4141252D01*
G01X11689592Y4147094D01*
G01X11701022Y4158524D01*
G01X11748774Y4221262D02*
G01X11748774Y4101374D01*
G01X11748774Y4204244D02*
G01X11760204Y4215674D01*
G01X11771634Y4221262D01*
G01X11788906Y4221262D01*
G01X11800336Y4215674D01*
G01X11811766Y4204244D01*
G01X11817354Y4186972D01*
G01X11817354Y4175542D01*
G01X11811766Y4158524D01*
G01X11800336Y4147094D01*
G01X11788906Y4141252D01*
G01X11771634Y4141252D01*
G01X11760204Y4147094D01*
G01X11748774Y4158524D01*
G01X11865106Y4186972D02*
G01X11933686Y4186972D01*
G01X11933686Y4198402D01*
G01X11928098Y4209832D01*
G01X11922256Y4215674D01*
G01X11910826Y4221262D01*
G01X11893808Y4221262D01*
G01X11882378Y4215674D01*
G01X11870948Y4204244D01*
G01X11865106Y4186972D01*
G01X11865106Y4175542D01*
G01X11870948Y4158524D01*
G01X11882378Y4147094D01*
G01X11893808Y4141252D01*
G01X11910826Y4141252D01*
G01X11922256Y4147094D01*
G01X11933686Y4158524D01*
G01X12824863Y4261394D02*
G01X12824863Y4141252D01*
G01X12824863Y4141252D02*
G01X12893443Y4141252D01*
G01X13009775Y4221262D02*
G01X13009775Y4141252D01*
G01X13009775Y4204244D02*
G01X12998345Y4215674D01*
G01X12986915Y4221262D01*
G01X12969897Y4221262D01*
G01X12958467Y4215674D01*
G01X12947037Y4204244D01*
G01X12941195Y4186972D01*
G01X12941195Y4175542D01*
G01X12947037Y4158524D01*
G01X12958467Y4147094D01*
G01X12969897Y4141252D01*
G01X12986915Y4141252D01*
G01X12998345Y4147094D01*
G01X13009775Y4158524D01*
G01X13063369Y4221262D02*
G01X13097659Y4141252D01*
G01X13131949Y4221262D02*
G01X13097659Y4141252D01*
G01X13086229Y4118392D01*
G01X13074799Y4106962D01*
G01X13063369Y4101374D01*
G01X13057527Y4101374D01*
G01X13179701Y4186972D02*
G01X13248281Y4186972D01*
G01X13248281Y4198402D01*
G01X13242693Y4209832D01*
G01X13236851Y4215674D01*
G01X13225421Y4221262D01*
G01X13208403Y4221262D01*
G01X13196973Y4215674D01*
G01X13185543Y4204244D01*
G01X13179701Y4186972D01*
G01X13179701Y4175542D01*
G01X13185543Y4158524D01*
G01X13196973Y4147094D01*
G01X13208403Y4141252D01*
G01X13225421Y4141252D01*
G01X13236851Y4147094D01*
G01X13248281Y4158524D01*
G01X13296033Y4221262D02*
G01X13296033Y4141252D01*
G01X13296033Y4186972D02*
G01X13301875Y4204244D01*
G01X13313305Y4215674D01*
G01X13324735Y4221262D01*
G01X13341753Y4221262D01*
G01X13517521Y4261394D02*
G01X13517521Y4141252D01*
G01X13517521Y4261394D02*
G01X13569083Y4261394D01*
G01X13586101Y4255552D01*
G01X13591943Y4249964D01*
G01X13597531Y4238534D01*
G01X13597531Y4221262D01*
G01X13591943Y4209832D01*
G01X13586101Y4204244D01*
G01X13569083Y4198402D01*
G01X13517521Y4198402D01*
G01X13713863Y4221262D02*
G01X13713863Y4141252D01*
G01X13713863Y4204244D02*
G01X13702433Y4215674D01*
G01X13691003Y4221262D01*
G01X13673985Y4221262D01*
G01X13662555Y4215674D01*
G01X13651125Y4204244D01*
G01X13645283Y4186972D01*
G01X13645283Y4175542D01*
G01X13651125Y4158524D01*
G01X13662555Y4147094D01*
G01X13673985Y4141252D01*
G01X13691003Y4141252D01*
G01X13702433Y4147094D01*
G01X13713863Y4158524D01*
G01X13761615Y4261394D02*
G01X13767457Y4255552D01*
G01X13773045Y4261394D01*
G01X13767457Y4266982D01*
G01X13761615Y4261394D01*
G01X13767457Y4221262D02*
G01X13767457Y4141252D01*
G01X13820797Y4221262D02*
G01X13820797Y4141252D01*
G01X13820797Y4186972D02*
G01X13826639Y4204244D01*
G01X13838069Y4215674D01*
G01X13849499Y4221262D01*
G01X13866517Y4221262D01*
G01X1052616Y3652121D02*
G01X1052616Y3657963D01*
G01X1058204Y3669393D01*
G01X1064046Y3674981D01*
G01X1075476Y3680823D01*
G01X1098336Y3680823D01*
G01X1109766Y3674981D01*
G01X1115354Y3669393D01*
G01X1121196Y3657963D01*
G01X1121196Y3646533D01*
G01X1115354Y3635103D01*
G01X1103924Y3617831D01*
G01X1046774Y3560681D01*
G01X1126784Y3560681D01*
G01X2472367Y3680823D02*
G01X2535359Y3680823D01*
G01X2501069Y3635103D01*
G01X2518087Y3635103D01*
G01X2529517Y3629261D01*
G01X2535359Y3623673D01*
G01X2540947Y3606401D01*
G01X2540947Y3594971D01*
G01X2535359Y3577953D01*
G01X2523929Y3566523D01*
G01X2506657Y3560681D01*
G01X2489639Y3560681D01*
G01X2472367Y3566523D01*
G01X2466779Y3572111D01*
G01X2460937Y3583541D01*
G01X2657279Y3680823D02*
G01X2600129Y3680823D01*
G01X2594541Y3629261D01*
G01X2600129Y3635103D01*
G01X2617401Y3640691D01*
G01X2634419Y3640691D01*
G01X2651691Y3635103D01*
G01X2663121Y3623673D01*
G01X2668709Y3606401D01*
G01X2668709Y3594971D01*
G01X2663121Y3577953D01*
G01X2651691Y3566523D01*
G01X2634419Y3560681D01*
G01X2617401Y3560681D01*
G01X2600129Y3566523D01*
G01X2594541Y3572111D01*
G01X2588699Y3583541D01*
G01X2722303Y3589383D02*
G01X2716461Y3583541D01*
G01X2722303Y3577953D01*
G01X2727891Y3583541D01*
G01X2722303Y3589383D01*
G01X2832793Y3680823D02*
G01X2775643Y3600813D01*
G01X2861495Y3600813D01*
G01X2832793Y3680823D02*
G01X2832793Y3560681D01*
G01X2909247Y3640691D02*
G01X2972239Y3560681D01*
G01X2972239Y3640691D02*
G01X2909247Y3560681D01*
G01X3031421Y3680823D02*
G01X3094413Y3680823D01*
G01X3060123Y3635103D01*
G01X3077141Y3635103D01*
G01X3088571Y3629261D01*
G01X3094413Y3623673D01*
G01X3100001Y3606401D01*
G01X3100001Y3594971D01*
G01X3094413Y3577953D01*
G01X3082983Y3566523D01*
G01X3065711Y3560681D01*
G01X3048693Y3560681D01*
G01X3031421Y3566523D01*
G01X3025833Y3572111D01*
G01X3019991Y3583541D01*
G01X3216333Y3680823D02*
G01X3159183Y3680823D01*
G01X3153595Y3629261D01*
G01X3159183Y3635103D01*
G01X3176455Y3640691D01*
G01X3193473Y3640691D01*
G01X3210745Y3635103D01*
G01X3222175Y3623673D01*
G01X3227763Y3606401D01*
G01X3227763Y3594971D01*
G01X3222175Y3577953D01*
G01X3210745Y3566523D01*
G01X3193473Y3560681D01*
G01X3176455Y3560681D01*
G01X3159183Y3566523D01*
G01X3153595Y3572111D01*
G01X3147753Y3583541D01*
G01X3281357Y3589383D02*
G01X3275515Y3583541D01*
G01X3281357Y3577953D01*
G01X3286945Y3583541D01*
G01X3281357Y3589383D01*
G01X3391847Y3680823D02*
G01X3334697Y3600813D01*
G01X3420549Y3600813D01*
G01X3391847Y3680823D02*
G01X3391847Y3560681D01*
G01X3468301Y3640691D02*
G01X3468301Y3560681D01*
G01X3468301Y3617831D02*
G01X3485573Y3635103D01*
G01X3497003Y3640691D01*
G01X3514021Y3640691D01*
G01X3525451Y3635103D01*
G01X3531293Y3617831D01*
G01X3531293Y3560681D01*
G01X3531293Y3617831D02*
G01X3548311Y3635103D01*
G01X3559741Y3640691D01*
G01X3577013Y3640691D01*
G01X3588443Y3635103D01*
G01X3594031Y3617831D01*
G01X3594031Y3560681D01*
G01X3641783Y3680823D02*
G01X3647625Y3674981D01*
G01X3653213Y3680823D01*
G01X3647625Y3686411D01*
G01X3641783Y3680823D01*
G01X3647625Y3640691D02*
G01X3647625Y3560681D01*
G01X3700965Y3680823D02*
G01X3700965Y3560681D01*
G01X3788849Y3703683D02*
G01X3777419Y3692253D01*
G01X3765989Y3674981D01*
G01X3754559Y3652121D01*
G01X3748717Y3623673D01*
G01X3748717Y3600813D01*
G01X3754559Y3572111D01*
G01X3765989Y3549251D01*
G01X3777419Y3532233D01*
G01X3788849Y3520803D01*
G01X3870891Y3680823D02*
G01X3853873Y3674981D01*
G01X3842443Y3657963D01*
G01X3836601Y3629261D01*
G01X3836601Y3612243D01*
G01X3842443Y3583541D01*
G01X3853873Y3566523D01*
G01X3870891Y3560681D01*
G01X3882321Y3560681D01*
G01X3899593Y3566523D01*
G01X3911023Y3583541D01*
G01X3916611Y3612243D01*
G01X3916611Y3629261D01*
G01X3911023Y3657963D01*
G01X3899593Y3674981D01*
G01X3882321Y3680823D01*
G01X3870891Y3680823D01*
G01X3970205Y3589383D02*
G01X3964363Y3583541D01*
G01X3970205Y3577953D01*
G01X3975793Y3583541D01*
G01X3970205Y3589383D01*
G01X4052247Y3680823D02*
G01X4034975Y3674981D01*
G01X4029387Y3663551D01*
G01X4029387Y3652121D01*
G01X4034975Y3640691D01*
G01X4046405Y3635103D01*
G01X4069265Y3629261D01*
G01X4086537Y3623673D01*
G01X4097967Y3612243D01*
G01X4103555Y3600813D01*
G01X4103555Y3583541D01*
G01X4097967Y3572111D01*
G01X4092125Y3566523D01*
G01X4075107Y3560681D01*
G01X4052247Y3560681D01*
G01X4034975Y3566523D01*
G01X4029387Y3572111D01*
G01X4023545Y3583541D01*
G01X4023545Y3600813D01*
G01X4029387Y3612243D01*
G01X4040817Y3623673D01*
G01X4057835Y3629261D01*
G01X4080695Y3635103D01*
G01X4092125Y3640691D01*
G01X4097967Y3652121D01*
G01X4097967Y3663551D01*
G01X4092125Y3674981D01*
G01X4075107Y3680823D01*
G01X4052247Y3680823D01*
G01X4225729Y3640691D02*
G01X4219887Y3623673D01*
G01X4208457Y3612243D01*
G01X4191439Y3606401D01*
G01X4185597Y3606401D01*
G01X4168579Y3612243D01*
G01X4157149Y3623673D01*
G01X4151307Y3640691D01*
G01X4151307Y3646533D01*
G01X4157149Y3663551D01*
G01X4168579Y3674981D01*
G01X4185597Y3680823D01*
G01X4191439Y3680823D01*
G01X4208457Y3674981D01*
G01X4219887Y3663551D01*
G01X4225729Y3640691D01*
G01X4225729Y3612243D01*
G01X4219887Y3583541D01*
G01X4208457Y3566523D01*
G01X4191439Y3560681D01*
G01X4180009Y3560681D01*
G01X4162737Y3566523D01*
G01X4157149Y3577953D01*
G01X4347903Y3640691D02*
G01X4342061Y3623673D01*
G01X4330631Y3612243D01*
G01X4313613Y3606401D01*
G01X4307771Y3606401D01*
G01X4290753Y3612243D01*
G01X4279323Y3623673D01*
G01X4273481Y3640691D01*
G01X4273481Y3646533D01*
G01X4279323Y3663551D01*
G01X4290753Y3674981D01*
G01X4307771Y3680823D01*
G01X4313613Y3680823D01*
G01X4330631Y3674981D01*
G01X4342061Y3663551D01*
G01X4347903Y3640691D01*
G01X4347903Y3612243D01*
G01X4342061Y3583541D01*
G01X4330631Y3566523D01*
G01X4313613Y3560681D01*
G01X4302183Y3560681D01*
G01X4284911Y3566523D01*
G01X4279323Y3577953D01*
G01X4395655Y3640691D02*
G01X4458647Y3560681D01*
G01X4458647Y3640691D02*
G01X4395655Y3560681D01*
G01X4540689Y3680823D02*
G01X4523671Y3674981D01*
G01X4512241Y3657963D01*
G01X4506399Y3629261D01*
G01X4506399Y3612243D01*
G01X4512241Y3583541D01*
G01X4523671Y3566523D01*
G01X4540689Y3560681D01*
G01X4552119Y3560681D01*
G01X4569391Y3566523D01*
G01X4580821Y3583541D01*
G01X4586409Y3612243D01*
G01X4586409Y3629261D01*
G01X4580821Y3657963D01*
G01X4569391Y3674981D01*
G01X4552119Y3680823D01*
G01X4540689Y3680823D01*
G01X4640003Y3589383D02*
G01X4634161Y3583541D01*
G01X4640003Y3577953D01*
G01X4645591Y3583541D01*
G01X4640003Y3589383D01*
G01X4722045Y3680823D02*
G01X4704773Y3674981D01*
G01X4699185Y3663551D01*
G01X4699185Y3652121D01*
G01X4704773Y3640691D01*
G01X4716203Y3635103D01*
G01X4739063Y3629261D01*
G01X4756335Y3623673D01*
G01X4767765Y3612243D01*
G01X4773353Y3600813D01*
G01X4773353Y3583541D01*
G01X4767765Y3572111D01*
G01X4761923Y3566523D01*
G01X4744905Y3560681D01*
G01X4722045Y3560681D01*
G01X4704773Y3566523D01*
G01X4699185Y3572111D01*
G01X4693343Y3583541D01*
G01X4693343Y3600813D01*
G01X4699185Y3612243D01*
G01X4710615Y3623673D01*
G01X4727633Y3629261D01*
G01X4750493Y3635103D01*
G01X4761923Y3640691D01*
G01X4767765Y3652121D01*
G01X4767765Y3663551D01*
G01X4761923Y3674981D01*
G01X4744905Y3680823D01*
G01X4722045Y3680823D01*
G01X4895527Y3640691D02*
G01X4889685Y3623673D01*
G01X4878255Y3612243D01*
G01X4861237Y3606401D01*
G01X4855395Y3606401D01*
G01X4838377Y3612243D01*
G01X4826947Y3623673D01*
G01X4821105Y3640691D01*
G01X4821105Y3646533D01*
G01X4826947Y3663551D01*
G01X4838377Y3674981D01*
G01X4855395Y3680823D01*
G01X4861237Y3680823D01*
G01X4878255Y3674981D01*
G01X4889685Y3663551D01*
G01X4895527Y3640691D01*
G01X4895527Y3612243D01*
G01X4889685Y3583541D01*
G01X4878255Y3566523D01*
G01X4861237Y3560681D01*
G01X4849807Y3560681D01*
G01X4832535Y3566523D01*
G01X4826947Y3577953D01*
G01X5017701Y3640691D02*
G01X5011859Y3623673D01*
G01X5000429Y3612243D01*
G01X4983411Y3606401D01*
G01X4977569Y3606401D01*
G01X4960551Y3612243D01*
G01X4949121Y3623673D01*
G01X4943279Y3640691D01*
G01X4943279Y3646533D01*
G01X4949121Y3663551D01*
G01X4960551Y3674981D01*
G01X4977569Y3680823D01*
G01X4983411Y3680823D01*
G01X5000429Y3674981D01*
G01X5011859Y3663551D01*
G01X5017701Y3640691D01*
G01X5017701Y3612243D01*
G01X5011859Y3583541D01*
G01X5000429Y3566523D01*
G01X4983411Y3560681D01*
G01X4971981Y3560681D01*
G01X4954709Y3566523D01*
G01X4949121Y3577953D01*
G01X5065453Y3640691D02*
G01X5065453Y3560681D01*
G01X5065453Y3617831D02*
G01X5082725Y3635103D01*
G01X5094155Y3640691D01*
G01X5111173Y3640691D01*
G01X5122603Y3635103D01*
G01X5128445Y3617831D01*
G01X5128445Y3560681D01*
G01X5128445Y3617831D02*
G01X5145463Y3635103D01*
G01X5156893Y3640691D01*
G01X5174165Y3640691D01*
G01X5185595Y3635103D01*
G01X5191183Y3617831D01*
G01X5191183Y3560681D01*
G01X5238935Y3640691D02*
G01X5238935Y3560681D01*
G01X5238935Y3617831D02*
G01X5256207Y3635103D01*
G01X5267637Y3640691D01*
G01X5284655Y3640691D01*
G01X5296085Y3635103D01*
G01X5301927Y3617831D01*
G01X5301927Y3560681D01*
G01X5301927Y3617831D02*
G01X5318945Y3635103D01*
G01X5330375Y3640691D01*
G01X5347647Y3640691D01*
G01X5359077Y3635103D01*
G01X5364665Y3617831D01*
G01X5364665Y3560681D01*
G01X5412417Y3703683D02*
G01X5423847Y3692253D01*
G01X5435277Y3674981D01*
G01X5446707Y3652121D01*
G01X5452549Y3623673D01*
G01X5452549Y3600813D01*
G01X5446707Y3572111D01*
G01X5435277Y3549251D01*
G01X5423847Y3532233D01*
G01X5412417Y3520803D01*
G01X6343727Y3680823D02*
G01X6343727Y3560681D01*
G01X6343727Y3680823D02*
G01X6395289Y3680823D01*
G01X6412307Y3674981D01*
G01X6418149Y3669393D01*
G01X6423737Y3657963D01*
G01X6423737Y3640691D01*
G01X6418149Y3629261D01*
G01X6412307Y3623673D01*
G01X6395289Y3617831D01*
G01X6343727Y3617831D01*
G01X6511621Y3680823D02*
G01X6511621Y3560681D01*
G01X6471489Y3680823D02*
G01X6551499Y3680823D01*
G01X6599251Y3680823D02*
G01X6599251Y3560681D01*
G01X6679261Y3680823D02*
G01X6679261Y3560681D01*
G01X6599251Y3623673D02*
G01X6679261Y3623673D01*
G01X7805134Y3680823D02*
G01X7805134Y3560681D01*
G01X7805134Y3680823D02*
G01X7856696Y3680823D01*
G01X7873714Y3674981D01*
G01X7879556Y3669393D01*
G01X7885144Y3657963D01*
G01X7885144Y3646533D01*
G01X7879556Y3635103D01*
G01X7873714Y3629261D01*
G01X7856696Y3623673D01*
G01X7805134Y3623673D01*
G01X7845266Y3623673D02*
G01X7885144Y3560681D01*
G01X7961598Y3640691D02*
G01X7950168Y3635103D01*
G01X7938738Y3623673D01*
G01X7932896Y3606401D01*
G01X7932896Y3594971D01*
G01X7938738Y3577953D01*
G01X7950168Y3566523D01*
G01X7961598Y3560681D01*
G01X7978616Y3560681D01*
G01X7990046Y3566523D01*
G01X8001476Y3577953D01*
G01X8007318Y3594971D01*
G01X8007318Y3606401D01*
G01X8001476Y3623673D01*
G01X7990046Y3635103D01*
G01X7978616Y3640691D01*
G01X7961598Y3640691D01*
G01X8055070Y3640691D02*
G01X8055070Y3583541D01*
G01X8060912Y3566523D01*
G01X8072342Y3560681D01*
G01X8089360Y3560681D01*
G01X8100790Y3566523D01*
G01X8118062Y3583541D01*
G01X8118062Y3640691D02*
G01X8118062Y3560681D01*
G01X8165814Y3640691D02*
G01X8165814Y3560681D01*
G01X8165814Y3617831D02*
G01X8183086Y3635103D01*
G01X8194516Y3640691D01*
G01X8211534Y3640691D01*
G01X8222964Y3635103D01*
G01X8228806Y3617831D01*
G01X8228806Y3560681D01*
G01X8345138Y3680823D02*
G01X8345138Y3560681D01*
G01X8345138Y3623673D02*
G01X8333708Y3635103D01*
G01X8322278Y3640691D01*
G01X8305260Y3640691D01*
G01X8293830Y3635103D01*
G01X8282400Y3623673D01*
G01X8276558Y3606401D01*
G01X8276558Y3594971D01*
G01X8282400Y3577953D01*
G01X8293830Y3566523D01*
G01X8305260Y3560681D01*
G01X8322278Y3560681D01*
G01X8333708Y3566523D01*
G01X8345138Y3577953D01*
G01X9236315Y3680823D02*
G01X9236315Y3560681D01*
G01X9236315Y3680823D02*
G01X9287877Y3680823D01*
G01X9304895Y3674981D01*
G01X9310737Y3669393D01*
G01X9316325Y3657963D01*
G01X9316325Y3640691D01*
G01X9310737Y3629261D01*
G01X9304895Y3623673D01*
G01X9287877Y3617831D01*
G01X9236315Y3617831D01*
G01X9432657Y3640691D02*
G01X9432657Y3560681D01*
G01X9432657Y3623673D02*
G01X9421227Y3635103D01*
G01X9409797Y3640691D01*
G01X9392779Y3640691D01*
G01X9381349Y3635103D01*
G01X9369919Y3623673D01*
G01X9364077Y3606401D01*
G01X9364077Y3594971D01*
G01X9369919Y3577953D01*
G01X9381349Y3566523D01*
G01X9392779Y3560681D01*
G01X9409797Y3560681D01*
G01X9421227Y3566523D01*
G01X9432657Y3577953D01*
G01X9548989Y3680823D02*
G01X9548989Y3560681D01*
G01X9548989Y3623673D02*
G01X9537559Y3635103D01*
G01X9526129Y3640691D01*
G01X9509111Y3640691D01*
G01X9497681Y3635103D01*
G01X9486251Y3623673D01*
G01X9480409Y3606401D01*
G01X9480409Y3594971D01*
G01X9486251Y3577953D01*
G01X9497681Y3566523D01*
G01X9509111Y3560681D01*
G01X9526129Y3560681D01*
G01X9537559Y3566523D01*
G01X9548989Y3577953D01*
G01X10905494Y3680823D02*
G01X10905494Y3560681D01*
G01X10905494Y3680823D02*
G01X10957056Y3680823D01*
G01X10974074Y3674981D01*
G01X10979916Y3669393D01*
G01X10985504Y3657963D01*
G01X10985504Y3646533D01*
G01X10979916Y3635103D01*
G01X10974074Y3629261D01*
G01X10957056Y3623673D01*
G01X10905494Y3623673D01*
G01X10945626Y3623673D02*
G01X10985504Y3560681D01*
G01X11061958Y3640691D02*
G01X11050528Y3635103D01*
G01X11039098Y3623673D01*
G01X11033256Y3606401D01*
G01X11033256Y3594971D01*
G01X11039098Y3577953D01*
G01X11050528Y3566523D01*
G01X11061958Y3560681D01*
G01X11078976Y3560681D01*
G01X11090406Y3566523D01*
G01X11101836Y3577953D01*
G01X11107678Y3594971D01*
G01X11107678Y3606401D01*
G01X11101836Y3623673D01*
G01X11090406Y3635103D01*
G01X11078976Y3640691D01*
G01X11061958Y3640691D01*
G01X11155430Y3640691D02*
G01X11155430Y3583541D01*
G01X11161272Y3566523D01*
G01X11172702Y3560681D01*
G01X11189720Y3560681D01*
G01X11201150Y3566523D01*
G01X11218422Y3583541D01*
G01X11218422Y3640691D02*
G01X11218422Y3560681D01*
G01X11266174Y3640691D02*
G01X11266174Y3560681D01*
G01X11266174Y3617831D02*
G01X11283446Y3635103D01*
G01X11294876Y3640691D01*
G01X11311894Y3640691D01*
G01X11323324Y3635103D01*
G01X11329166Y3617831D01*
G01X11329166Y3560681D01*
G01X11445498Y3680823D02*
G01X11445498Y3560681D01*
G01X11445498Y3623673D02*
G01X11434068Y3635103D01*
G01X11422638Y3640691D01*
G01X11405620Y3640691D01*
G01X11394190Y3635103D01*
G01X11382760Y3623673D01*
G01X11376918Y3606401D01*
G01X11376918Y3594971D01*
G01X11382760Y3577953D01*
G01X11394190Y3566523D01*
G01X11405620Y3560681D01*
G01X11422638Y3560681D01*
G01X11434068Y3566523D01*
G01X11445498Y3577953D01*
G01X12864995Y3680823D02*
G01X12864995Y3560681D01*
G01X12824863Y3680823D02*
G01X12904873Y3680823D01*
G01X12981327Y3640691D02*
G01X12969897Y3635103D01*
G01X12958467Y3623673D01*
G01X12952625Y3606401D01*
G01X12952625Y3594971D01*
G01X12958467Y3577953D01*
G01X12969897Y3566523D01*
G01X12981327Y3560681D01*
G01X12998345Y3560681D01*
G01X13009775Y3566523D01*
G01X13021205Y3577953D01*
G01X13027047Y3594971D01*
G01X13027047Y3606401D01*
G01X13021205Y3623673D01*
G01X13009775Y3635103D01*
G01X12998345Y3640691D01*
G01X12981327Y3640691D01*
G01X13074799Y3640691D02*
G01X13074799Y3520803D01*
G01X13074799Y3623673D02*
G01X13086229Y3635103D01*
G01X13097659Y3640691D01*
G01X13114931Y3640691D01*
G01X13126361Y3635103D01*
G01X13137791Y3623673D01*
G01X13143379Y3606401D01*
G01X13143379Y3594971D01*
G01X13137791Y3577953D01*
G01X13126361Y3566523D01*
G01X13114931Y3560681D01*
G01X13097659Y3560681D01*
G01X13086229Y3566523D01*
G01X13074799Y3577953D01*
G01X13319147Y3680823D02*
G01X13319147Y3560681D01*
G01X13319147Y3560681D02*
G01X13387727Y3560681D01*
G01X13504059Y3640691D02*
G01X13504059Y3560681D01*
G01X13504059Y3623673D02*
G01X13492629Y3635103D01*
G01X13481199Y3640691D01*
G01X13464181Y3640691D01*
G01X13452751Y3635103D01*
G01X13441321Y3623673D01*
G01X13435479Y3606401D01*
G01X13435479Y3594971D01*
G01X13441321Y3577953D01*
G01X13452751Y3566523D01*
G01X13464181Y3560681D01*
G01X13481199Y3560681D01*
G01X13492629Y3566523D01*
G01X13504059Y3577953D01*
G01X13557653Y3640691D02*
G01X13591943Y3560681D01*
G01X13626233Y3640691D02*
G01X13591943Y3560681D01*
G01X13580513Y3537821D01*
G01X13569083Y3526391D01*
G01X13557653Y3520803D01*
G01X13551811Y3520803D01*
G01X13673985Y3606401D02*
G01X13742565Y3606401D01*
G01X13742565Y3617831D01*
G01X13736977Y3629261D01*
G01X13731135Y3635103D01*
G01X13719705Y3640691D01*
G01X13702687Y3640691D01*
G01X13691257Y3635103D01*
G01X13679827Y3623673D01*
G01X13673985Y3606401D01*
G01X13673985Y3594971D01*
G01X13679827Y3577953D01*
G01X13691257Y3566523D01*
G01X13702687Y3560681D01*
G01X13719705Y3560681D01*
G01X13731135Y3566523D01*
G01X13742565Y3577953D01*
G01X13790317Y3640691D02*
G01X13790317Y3560681D01*
G01X13790317Y3606401D02*
G01X13796159Y3623673D01*
G01X13807589Y3635103D01*
G01X13819019Y3640691D01*
G01X13836037Y3640691D01*
G01X13883789Y3612243D02*
G01X13986659Y3612243D01*
G01X14034411Y3680823D02*
G01X14034411Y3560681D01*
G01X14034411Y3680823D02*
G01X14085973Y3680823D01*
G01X14102991Y3674981D01*
G01X14108833Y3669393D01*
G01X14114421Y3657963D01*
G01X14114421Y3646533D01*
G01X14108833Y3635103D01*
G01X14102991Y3629261D01*
G01X14085973Y3623673D01*
G01X14034411Y3623673D02*
G01X14085973Y3623673D01*
G01X14102991Y3617831D01*
G01X14108833Y3612243D01*
G01X14114421Y3600813D01*
G01X14114421Y3583541D01*
G01X14108833Y3572111D01*
G01X14102991Y3566523D01*
G01X14085973Y3560681D01*
G01X14034411Y3560681D01*
G01X14190875Y3640691D02*
G01X14179445Y3635103D01*
G01X14168015Y3623673D01*
G01X14162173Y3606401D01*
G01X14162173Y3594971D01*
G01X14168015Y3577953D01*
G01X14179445Y3566523D01*
G01X14190875Y3560681D01*
G01X14207893Y3560681D01*
G01X14219323Y3566523D01*
G01X14230753Y3577953D01*
G01X14236595Y3594971D01*
G01X14236595Y3606401D01*
G01X14230753Y3623673D01*
G01X14219323Y3635103D01*
G01X14207893Y3640691D01*
G01X14190875Y3640691D01*
G01X14301619Y3680823D02*
G01X14301619Y3583541D01*
G01X14307207Y3566523D01*
G01X14318637Y3560681D01*
G01X14330067Y3560681D01*
G01X14284347Y3640691D02*
G01X14324479Y3640691D01*
G01X14395091Y3680823D02*
G01X14395091Y3583541D01*
G01X14400679Y3566523D01*
G01X14412109Y3560681D01*
G01X14423539Y3560681D01*
G01X14377819Y3640691D02*
G01X14417951Y3640691D01*
G01X14499993Y3640691D02*
G01X14488563Y3635103D01*
G01X14477133Y3623673D01*
G01X14471291Y3606401D01*
G01X14471291Y3594971D01*
G01X14477133Y3577953D01*
G01X14488563Y3566523D01*
G01X14499993Y3560681D01*
G01X14517011Y3560681D01*
G01X14528441Y3566523D01*
G01X14539871Y3577953D01*
G01X14545713Y3594971D01*
G01X14545713Y3606401D01*
G01X14539871Y3623673D01*
G01X14528441Y3635103D01*
G01X14517011Y3640691D01*
G01X14499993Y3640691D01*
G01X14593465Y3640691D02*
G01X14593465Y3560681D01*
G01X14593465Y3617831D02*
G01X14610737Y3635103D01*
G01X14622167Y3640691D01*
G01X14639185Y3640691D01*
G01X14650615Y3635103D01*
G01X14656457Y3617831D01*
G01X14656457Y3560681D01*
G01X14656457Y3617831D02*
G01X14673475Y3635103D01*
G01X14684905Y3640691D01*
G01X14702177Y3640691D01*
G01X14713607Y3635103D01*
G01X14719195Y3617831D01*
G01X14719195Y3560681D01*
G01X14894963Y3680823D02*
G01X14894963Y3560681D01*
G01X14894963Y3560681D02*
G01X14963543Y3560681D01*
G01X15079875Y3640691D02*
G01X15079875Y3560681D01*
G01X15079875Y3623673D02*
G01X15068445Y3635103D01*
G01X15057015Y3640691D01*
G01X15039997Y3640691D01*
G01X15028567Y3635103D01*
G01X15017137Y3623673D01*
G01X15011295Y3606401D01*
G01X15011295Y3594971D01*
G01X15017137Y3577953D01*
G01X15028567Y3566523D01*
G01X15039997Y3560681D01*
G01X15057015Y3560681D01*
G01X15068445Y3566523D01*
G01X15079875Y3577953D01*
G01X15133469Y3640691D02*
G01X15167759Y3560681D01*
G01X15202049Y3640691D02*
G01X15167759Y3560681D01*
G01X15156329Y3537821D01*
G01X15144899Y3526391D01*
G01X15133469Y3520803D01*
G01X15127627Y3520803D01*
G01X15249801Y3606401D02*
G01X15318381Y3606401D01*
G01X15318381Y3617831D01*
G01X15312793Y3629261D01*
G01X15306951Y3635103D01*
G01X15295521Y3640691D01*
G01X15278503Y3640691D01*
G01X15267073Y3635103D01*
G01X15255643Y3623673D01*
G01X15249801Y3606401D01*
G01X15249801Y3594971D01*
G01X15255643Y3577953D01*
G01X15267073Y3566523D01*
G01X15278503Y3560681D01*
G01X15295521Y3560681D01*
G01X15306951Y3566523D01*
G01X15318381Y3577953D01*
G01X15366133Y3640691D02*
G01X15366133Y3560681D01*
G01X15366133Y3606401D02*
G01X15371975Y3623673D01*
G01X15383405Y3635103D01*
G01X15394835Y3640691D01*
G01X15411853Y3640691D01*
G01X1115354Y3082979D02*
G01X1109766Y3094409D01*
G01X1092494Y3100251D01*
G01X1081064Y3100251D01*
G01X1064046Y3094409D01*
G01X1052616Y3077391D01*
G01X1046774Y3048689D01*
G01X1046774Y3020241D01*
G01X1052616Y2997381D01*
G01X1064046Y2985951D01*
G01X1081064Y2980109D01*
G01X1086906Y2980109D01*
G01X1103924Y2985951D01*
G01X1115354Y2997381D01*
G01X1121196Y3014399D01*
G01X1121196Y3020241D01*
G01X1115354Y3037259D01*
G01X1103924Y3048689D01*
G01X1086906Y3054531D01*
G01X1081064Y3054531D01*
G01X1064046Y3048689D01*
G01X1052616Y3037259D01*
G01X1046774Y3020241D01*
G01X2472367Y3100251D02*
G01X2535359Y3100251D01*
G01X2501069Y3054531D01*
G01X2518087Y3054531D01*
G01X2529517Y3048689D01*
G01X2535359Y3043101D01*
G01X2540947Y3025829D01*
G01X2540947Y3014399D01*
G01X2535359Y2997381D01*
G01X2523929Y2985951D01*
G01X2506657Y2980109D01*
G01X2489639Y2980109D01*
G01X2472367Y2985951D01*
G01X2466779Y2991539D01*
G01X2460937Y3002969D01*
G01X2663121Y3060119D02*
G01X2657279Y3043101D01*
G01X2645849Y3031671D01*
G01X2628831Y3025829D01*
G01X2622989Y3025829D01*
G01X2605971Y3031671D01*
G01X2594541Y3043101D01*
G01X2588699Y3060119D01*
G01X2588699Y3065961D01*
G01X2594541Y3082979D01*
G01X2605971Y3094409D01*
G01X2622989Y3100251D01*
G01X2628831Y3100251D01*
G01X2645849Y3094409D01*
G01X2657279Y3082979D01*
G01X2663121Y3060119D01*
G01X2663121Y3031671D01*
G01X2657279Y3002969D01*
G01X2645849Y2985951D01*
G01X2628831Y2980109D01*
G01X2617401Y2980109D01*
G01X2600129Y2985951D01*
G01X2594541Y2997381D01*
G01X2716715Y3008811D02*
G01X2710873Y3002969D01*
G01X2716715Y2997381D01*
G01X2722303Y3002969D01*
G01X2716715Y3008811D01*
G01X2827205Y3100251D02*
G01X2770055Y3020241D01*
G01X2855907Y3020241D01*
G01X2827205Y3100251D02*
G01X2827205Y2980109D01*
G01X2903659Y3060119D02*
G01X2966651Y2980109D01*
G01X2966651Y3060119D02*
G01X2903659Y2980109D01*
G01X3025833Y3100251D02*
G01X3088825Y3100251D01*
G01X3054535Y3054531D01*
G01X3071553Y3054531D01*
G01X3082983Y3048689D01*
G01X3088825Y3043101D01*
G01X3094413Y3025829D01*
G01X3094413Y3014399D01*
G01X3088825Y2997381D01*
G01X3077395Y2985951D01*
G01X3060123Y2980109D01*
G01X3043105Y2980109D01*
G01X3025833Y2985951D01*
G01X3020245Y2991539D01*
G01X3014403Y3002969D01*
G01X3216587Y3060119D02*
G01X3210745Y3043101D01*
G01X3199315Y3031671D01*
G01X3182297Y3025829D01*
G01X3176455Y3025829D01*
G01X3159437Y3031671D01*
G01X3148007Y3043101D01*
G01X3142165Y3060119D01*
G01X3142165Y3065961D01*
G01X3148007Y3082979D01*
G01X3159437Y3094409D01*
G01X3176455Y3100251D01*
G01X3182297Y3100251D01*
G01X3199315Y3094409D01*
G01X3210745Y3082979D01*
G01X3216587Y3060119D01*
G01X3216587Y3031671D01*
G01X3210745Y3002969D01*
G01X3199315Y2985951D01*
G01X3182297Y2980109D01*
G01X3170867Y2980109D01*
G01X3153595Y2985951D01*
G01X3148007Y2997381D01*
G01X3270181Y3008811D02*
G01X3264339Y3002969D01*
G01X3270181Y2997381D01*
G01X3275769Y3002969D01*
G01X3270181Y3008811D01*
G01X3380671Y3100251D02*
G01X3323521Y3020241D01*
G01X3409373Y3020241D01*
G01X3380671Y3100251D02*
G01X3380671Y2980109D01*
G01X3457125Y3060119D02*
G01X3457125Y2980109D01*
G01X3457125Y3037259D02*
G01X3474397Y3054531D01*
G01X3485827Y3060119D01*
G01X3502845Y3060119D01*
G01X3514275Y3054531D01*
G01X3520117Y3037259D01*
G01X3520117Y2980109D01*
G01X3520117Y3037259D02*
G01X3537135Y3054531D01*
G01X3548565Y3060119D01*
G01X3565837Y3060119D01*
G01X3577267Y3054531D01*
G01X3582855Y3037259D01*
G01X3582855Y2980109D01*
G01X3630607Y3100251D02*
G01X3636449Y3094409D01*
G01X3642037Y3100251D01*
G01X3636449Y3105839D01*
G01X3630607Y3100251D01*
G01X3636449Y3060119D02*
G01X3636449Y2980109D01*
G01X3689789Y3100251D02*
G01X3689789Y2980109D01*
G01X3777673Y3123111D02*
G01X3766243Y3111681D01*
G01X3754813Y3094409D01*
G01X3743383Y3071549D01*
G01X3737541Y3043101D01*
G01X3737541Y3020241D01*
G01X3743383Y2991539D01*
G01X3754813Y2968679D01*
G01X3766243Y2951661D01*
G01X3777673Y2940231D01*
G01X3825425Y3077391D02*
G01X3836855Y3082979D01*
G01X3854127Y3100251D01*
G01X3854127Y2980109D01*
G01X3907721Y3008811D02*
G01X3901879Y3002969D01*
G01X3907721Y2997381D01*
G01X3913309Y3002969D01*
G01X3907721Y3008811D01*
G01X3995351Y3100251D02*
G01X3978333Y3094409D01*
G01X3966903Y3077391D01*
G01X3961061Y3048689D01*
G01X3961061Y3031671D01*
G01X3966903Y3002969D01*
G01X3978333Y2985951D01*
G01X3995351Y2980109D01*
G01X4006781Y2980109D01*
G01X4024053Y2985951D01*
G01X4035483Y3002969D01*
G01X4041071Y3031671D01*
G01X4041071Y3048689D01*
G01X4035483Y3077391D01*
G01X4024053Y3094409D01*
G01X4006781Y3100251D01*
G01X3995351Y3100251D01*
G01X4123113Y3100251D02*
G01X4106095Y3094409D01*
G01X4094665Y3077391D01*
G01X4088823Y3048689D01*
G01X4088823Y3031671D01*
G01X4094665Y3002969D01*
G01X4106095Y2985951D01*
G01X4123113Y2980109D01*
G01X4134543Y2980109D01*
G01X4151815Y2985951D01*
G01X4163245Y3002969D01*
G01X4168833Y3031671D01*
G01X4168833Y3048689D01*
G01X4163245Y3077391D01*
G01X4151815Y3094409D01*
G01X4134543Y3100251D01*
G01X4123113Y3100251D01*
G01X4250875Y3100251D02*
G01X4233857Y3094409D01*
G01X4222427Y3077391D01*
G01X4216585Y3048689D01*
G01X4216585Y3031671D01*
G01X4222427Y3002969D01*
G01X4233857Y2985951D01*
G01X4250875Y2980109D01*
G01X4262305Y2980109D01*
G01X4279577Y2985951D01*
G01X4291007Y3002969D01*
G01X4296595Y3031671D01*
G01X4296595Y3048689D01*
G01X4291007Y3077391D01*
G01X4279577Y3094409D01*
G01X4262305Y3100251D01*
G01X4250875Y3100251D01*
G01X4344347Y3060119D02*
G01X4407339Y2980109D01*
G01X4407339Y3060119D02*
G01X4344347Y2980109D01*
G01X4455091Y3077391D02*
G01X4466521Y3082979D01*
G01X4483793Y3100251D01*
G01X4483793Y2980109D01*
G01X4537387Y3008811D02*
G01X4531545Y3002969D01*
G01X4537387Y2997381D01*
G01X4542975Y3002969D01*
G01X4537387Y3008811D01*
G01X4625017Y3100251D02*
G01X4607999Y3094409D01*
G01X4596569Y3077391D01*
G01X4590727Y3048689D01*
G01X4590727Y3031671D01*
G01X4596569Y3002969D01*
G01X4607999Y2985951D01*
G01X4625017Y2980109D01*
G01X4636447Y2980109D01*
G01X4653719Y2985951D01*
G01X4665149Y3002969D01*
G01X4670737Y3031671D01*
G01X4670737Y3048689D01*
G01X4665149Y3077391D01*
G01X4653719Y3094409D01*
G01X4636447Y3100251D01*
G01X4625017Y3100251D01*
G01X4752779Y3100251D02*
G01X4735761Y3094409D01*
G01X4724331Y3077391D01*
G01X4718489Y3048689D01*
G01X4718489Y3031671D01*
G01X4724331Y3002969D01*
G01X4735761Y2985951D01*
G01X4752779Y2980109D01*
G01X4764209Y2980109D01*
G01X4781481Y2985951D01*
G01X4792911Y3002969D01*
G01X4798499Y3031671D01*
G01X4798499Y3048689D01*
G01X4792911Y3077391D01*
G01X4781481Y3094409D01*
G01X4764209Y3100251D01*
G01X4752779Y3100251D01*
G01X4880541Y3100251D02*
G01X4863523Y3094409D01*
G01X4852093Y3077391D01*
G01X4846251Y3048689D01*
G01X4846251Y3031671D01*
G01X4852093Y3002969D01*
G01X4863523Y2985951D01*
G01X4880541Y2980109D01*
G01X4891971Y2980109D01*
G01X4909243Y2985951D01*
G01X4920673Y3002969D01*
G01X4926261Y3031671D01*
G01X4926261Y3048689D01*
G01X4920673Y3077391D01*
G01X4909243Y3094409D01*
G01X4891971Y3100251D01*
G01X4880541Y3100251D01*
G01X4974013Y3060119D02*
G01X4974013Y2980109D01*
G01X4974013Y3037259D02*
G01X4991285Y3054531D01*
G01X5002715Y3060119D01*
G01X5019733Y3060119D01*
G01X5031163Y3054531D01*
G01X5037005Y3037259D01*
G01X5037005Y2980109D01*
G01X5037005Y3037259D02*
G01X5054023Y3054531D01*
G01X5065453Y3060119D01*
G01X5082725Y3060119D01*
G01X5094155Y3054531D01*
G01X5099743Y3037259D01*
G01X5099743Y2980109D01*
G01X5147495Y3060119D02*
G01X5147495Y2980109D01*
G01X5147495Y3037259D02*
G01X5164767Y3054531D01*
G01X5176197Y3060119D01*
G01X5193215Y3060119D01*
G01X5204645Y3054531D01*
G01X5210487Y3037259D01*
G01X5210487Y2980109D01*
G01X5210487Y3037259D02*
G01X5227505Y3054531D01*
G01X5238935Y3060119D01*
G01X5256207Y3060119D01*
G01X5267637Y3054531D01*
G01X5273225Y3037259D01*
G01X5273225Y2980109D01*
G01X5320977Y3123111D02*
G01X5332407Y3111681D01*
G01X5343837Y3094409D01*
G01X5355267Y3071549D01*
G01X5361109Y3043101D01*
G01X5361109Y3020241D01*
G01X5355267Y2991539D01*
G01X5343837Y2968679D01*
G01X5332407Y2951661D01*
G01X5320977Y2940231D01*
G01X6343727Y3100251D02*
G01X6343727Y2980109D01*
G01X6343727Y3100251D02*
G01X6395289Y3100251D01*
G01X6412307Y3094409D01*
G01X6418149Y3088821D01*
G01X6423737Y3077391D01*
G01X6423737Y3060119D01*
G01X6418149Y3048689D01*
G01X6412307Y3043101D01*
G01X6395289Y3037259D01*
G01X6343727Y3037259D01*
G01X6511621Y3100251D02*
G01X6511621Y2980109D01*
G01X6471489Y3100251D02*
G01X6551499Y3100251D01*
G01X6599251Y3100251D02*
G01X6599251Y2980109D01*
G01X6679261Y3100251D02*
G01X6679261Y2980109D01*
G01X6599251Y3043101D02*
G01X6679261Y3043101D01*
G01X7805134Y3100251D02*
G01X7805134Y2980109D01*
G01X7805134Y3100251D02*
G01X7856696Y3100251D01*
G01X7873714Y3094409D01*
G01X7879556Y3088821D01*
G01X7885144Y3077391D01*
G01X7885144Y3065961D01*
G01X7879556Y3054531D01*
G01X7873714Y3048689D01*
G01X7856696Y3043101D01*
G01X7805134Y3043101D01*
G01X7845266Y3043101D02*
G01X7885144Y2980109D01*
G01X7961598Y3060119D02*
G01X7950168Y3054531D01*
G01X7938738Y3043101D01*
G01X7932896Y3025829D01*
G01X7932896Y3014399D01*
G01X7938738Y2997381D01*
G01X7950168Y2985951D01*
G01X7961598Y2980109D01*
G01X7978616Y2980109D01*
G01X7990046Y2985951D01*
G01X8001476Y2997381D01*
G01X8007318Y3014399D01*
G01X8007318Y3025829D01*
G01X8001476Y3043101D01*
G01X7990046Y3054531D01*
G01X7978616Y3060119D01*
G01X7961598Y3060119D01*
G01X8055070Y3060119D02*
G01X8055070Y3002969D01*
G01X8060912Y2985951D01*
G01X8072342Y2980109D01*
G01X8089360Y2980109D01*
G01X8100790Y2985951D01*
G01X8118062Y3002969D01*
G01X8118062Y3060119D02*
G01X8118062Y2980109D01*
G01X8165814Y3060119D02*
G01X8165814Y2980109D01*
G01X8165814Y3037259D02*
G01X8183086Y3054531D01*
G01X8194516Y3060119D01*
G01X8211534Y3060119D01*
G01X8222964Y3054531D01*
G01X8228806Y3037259D01*
G01X8228806Y2980109D01*
G01X8345138Y3100251D02*
G01X8345138Y2980109D01*
G01X8345138Y3043101D02*
G01X8333708Y3054531D01*
G01X8322278Y3060119D01*
G01X8305260Y3060119D01*
G01X8293830Y3054531D01*
G01X8282400Y3043101D01*
G01X8276558Y3025829D01*
G01X8276558Y3014399D01*
G01X8282400Y2997381D01*
G01X8293830Y2985951D01*
G01X8305260Y2980109D01*
G01X8322278Y2980109D01*
G01X8333708Y2985951D01*
G01X8345138Y2997381D01*
G01X9236315Y3100251D02*
G01X9236315Y2980109D01*
G01X9236315Y3100251D02*
G01X9287877Y3100251D01*
G01X9304895Y3094409D01*
G01X9310737Y3088821D01*
G01X9316325Y3077391D01*
G01X9316325Y3060119D01*
G01X9310737Y3048689D01*
G01X9304895Y3043101D01*
G01X9287877Y3037259D01*
G01X9236315Y3037259D01*
G01X9432657Y3060119D02*
G01X9432657Y2980109D01*
G01X9432657Y3043101D02*
G01X9421227Y3054531D01*
G01X9409797Y3060119D01*
G01X9392779Y3060119D01*
G01X9381349Y3054531D01*
G01X9369919Y3043101D01*
G01X9364077Y3025829D01*
G01X9364077Y3014399D01*
G01X9369919Y2997381D01*
G01X9381349Y2985951D01*
G01X9392779Y2980109D01*
G01X9409797Y2980109D01*
G01X9421227Y2985951D01*
G01X9432657Y2997381D01*
G01X9548989Y3100251D02*
G01X9548989Y2980109D01*
G01X9548989Y3043101D02*
G01X9537559Y3054531D01*
G01X9526129Y3060119D01*
G01X9509111Y3060119D01*
G01X9497681Y3054531D01*
G01X9486251Y3043101D01*
G01X9480409Y3025829D01*
G01X9480409Y3014399D01*
G01X9486251Y2997381D01*
G01X9497681Y2985951D01*
G01X9509111Y2980109D01*
G01X9526129Y2980109D01*
G01X9537559Y2985951D01*
G01X9548989Y2997381D01*
G01X10945626Y3123111D02*
G01X10934196Y3111681D01*
G01X10922766Y3094409D01*
G01X10911336Y3071549D01*
G01X10905494Y3043101D01*
G01X10905494Y3020241D01*
G01X10911336Y2991539D01*
G01X10922766Y2968679D01*
G01X10934196Y2951661D01*
G01X10945626Y2940231D01*
G01X10993378Y3100251D02*
G01X10993378Y2980109D01*
G01X10993378Y3100251D02*
G01X11039098Y2980109D01*
G01X11084818Y3100251D02*
G01X11039098Y2980109D01*
G01X11084818Y3100251D02*
G01X11084818Y2980109D01*
G01X11132570Y3100251D02*
G01X11138412Y3094409D01*
G01X11144000Y3100251D01*
G01X11138412Y3105839D01*
G01X11132570Y3100251D01*
G01X11138412Y3060119D02*
G01X11138412Y2980109D01*
G01X11191752Y3060119D02*
G01X11254744Y2980109D01*
G01X11254744Y3060119D02*
G01X11191752Y2980109D01*
G01X11302496Y3025829D02*
G01X11371076Y3025829D01*
G01X11371076Y3037259D01*
G01X11365488Y3048689D01*
G01X11359646Y3054531D01*
G01X11348216Y3060119D01*
G01X11331198Y3060119D01*
G01X11319768Y3054531D01*
G01X11308338Y3043101D01*
G01X11302496Y3025829D01*
G01X11302496Y3014399D01*
G01X11308338Y2997381D01*
G01X11319768Y2985951D01*
G01X11331198Y2980109D01*
G01X11348216Y2980109D01*
G01X11359646Y2985951D01*
G01X11371076Y2997381D01*
G01X11487408Y3100251D02*
G01X11487408Y2980109D01*
G01X11487408Y3043101D02*
G01X11475978Y3054531D01*
G01X11464548Y3060119D01*
G01X11447530Y3060119D01*
G01X11436100Y3054531D01*
G01X11424670Y3043101D01*
G01X11418828Y3025829D01*
G01X11418828Y3014399D01*
G01X11424670Y2997381D01*
G01X11436100Y2985951D01*
G01X11447530Y2980109D01*
G01X11464548Y2980109D01*
G01X11475978Y2985951D01*
G01X11487408Y2997381D01*
G01X11535160Y3123111D02*
G01X11546590Y3111681D01*
G01X11558020Y3094409D01*
G01X11569450Y3071549D01*
G01X11575292Y3043101D01*
G01X11575292Y3020241D01*
G01X11569450Y2991539D01*
G01X11558020Y2968679D01*
G01X11546590Y2951661D01*
G01X11535160Y2940231D01*
G01X12864995Y3100251D02*
G01X12864995Y2980109D01*
G01X12824863Y3100251D02*
G01X12904873Y3100251D01*
G01X12981327Y3060119D02*
G01X12969897Y3054531D01*
G01X12958467Y3043101D01*
G01X12952625Y3025829D01*
G01X12952625Y3014399D01*
G01X12958467Y2997381D01*
G01X12969897Y2985951D01*
G01X12981327Y2980109D01*
G01X12998345Y2980109D01*
G01X13009775Y2985951D01*
G01X13021205Y2997381D01*
G01X13027047Y3014399D01*
G01X13027047Y3025829D01*
G01X13021205Y3043101D01*
G01X13009775Y3054531D01*
G01X12998345Y3060119D01*
G01X12981327Y3060119D01*
G01X13074799Y3060119D02*
G01X13074799Y2940231D01*
G01X13074799Y3043101D02*
G01X13086229Y3054531D01*
G01X13097659Y3060119D01*
G01X13114931Y3060119D01*
G01X13126361Y3054531D01*
G01X13137791Y3043101D01*
G01X13143379Y3025829D01*
G01X13143379Y3014399D01*
G01X13137791Y2997381D01*
G01X13126361Y2985951D01*
G01X13114931Y2980109D01*
G01X13097659Y2980109D01*
G01X13086229Y2985951D01*
G01X13074799Y2997381D01*
G01X13319147Y3100251D02*
G01X13319147Y2980109D01*
G01X13319147Y2980109D02*
G01X13387727Y2980109D01*
G01X13504059Y3060119D02*
G01X13504059Y2980109D01*
G01X13504059Y3043101D02*
G01X13492629Y3054531D01*
G01X13481199Y3060119D01*
G01X13464181Y3060119D01*
G01X13452751Y3054531D01*
G01X13441321Y3043101D01*
G01X13435479Y3025829D01*
G01X13435479Y3014399D01*
G01X13441321Y2997381D01*
G01X13452751Y2985951D01*
G01X13464181Y2980109D01*
G01X13481199Y2980109D01*
G01X13492629Y2985951D01*
G01X13504059Y2997381D01*
G01X13557653Y3060119D02*
G01X13591943Y2980109D01*
G01X13626233Y3060119D02*
G01X13591943Y2980109D01*
G01X13580513Y2957249D01*
G01X13569083Y2945819D01*
G01X13557653Y2940231D01*
G01X13551811Y2940231D01*
G01X13673985Y3025829D02*
G01X13742565Y3025829D01*
G01X13742565Y3037259D01*
G01X13736977Y3048689D01*
G01X13731135Y3054531D01*
G01X13719705Y3060119D01*
G01X13702687Y3060119D01*
G01X13691257Y3054531D01*
G01X13679827Y3043101D01*
G01X13673985Y3025829D01*
G01X13673985Y3014399D01*
G01X13679827Y2997381D01*
G01X13691257Y2985951D01*
G01X13702687Y2980109D01*
G01X13719705Y2980109D01*
G01X13731135Y2985951D01*
G01X13742565Y2997381D01*
G01X13790317Y3060119D02*
G01X13790317Y2980109D01*
G01X13790317Y3025829D02*
G01X13796159Y3043101D01*
G01X13807589Y3054531D01*
G01X13819019Y3060119D01*
G01X13836037Y3060119D01*
G01X13883789Y3031671D02*
G01X13986659Y3031671D01*
G01X14034411Y3100251D02*
G01X14034411Y2980109D01*
G01X14034411Y3100251D02*
G01X14085973Y3100251D01*
G01X14102991Y3094409D01*
G01X14108833Y3088821D01*
G01X14114421Y3077391D01*
G01X14114421Y3065961D01*
G01X14108833Y3054531D01*
G01X14102991Y3048689D01*
G01X14085973Y3043101D01*
G01X14034411Y3043101D02*
G01X14085973Y3043101D01*
G01X14102991Y3037259D01*
G01X14108833Y3031671D01*
G01X14114421Y3020241D01*
G01X14114421Y3002969D01*
G01X14108833Y2991539D01*
G01X14102991Y2985951D01*
G01X14085973Y2980109D01*
G01X14034411Y2980109D01*
G01X14190875Y3060119D02*
G01X14179445Y3054531D01*
G01X14168015Y3043101D01*
G01X14162173Y3025829D01*
G01X14162173Y3014399D01*
G01X14168015Y2997381D01*
G01X14179445Y2985951D01*
G01X14190875Y2980109D01*
G01X14207893Y2980109D01*
G01X14219323Y2985951D01*
G01X14230753Y2997381D01*
G01X14236595Y3014399D01*
G01X14236595Y3025829D01*
G01X14230753Y3043101D01*
G01X14219323Y3054531D01*
G01X14207893Y3060119D01*
G01X14190875Y3060119D01*
G01X14301619Y3100251D02*
G01X14301619Y3002969D01*
G01X14307207Y2985951D01*
G01X14318637Y2980109D01*
G01X14330067Y2980109D01*
G01X14284347Y3060119D02*
G01X14324479Y3060119D01*
G01X14395091Y3100251D02*
G01X14395091Y3002969D01*
G01X14400679Y2985951D01*
G01X14412109Y2980109D01*
G01X14423539Y2980109D01*
G01X14377819Y3060119D02*
G01X14417951Y3060119D01*
G01X14499993Y3060119D02*
G01X14488563Y3054531D01*
G01X14477133Y3043101D01*
G01X14471291Y3025829D01*
G01X14471291Y3014399D01*
G01X14477133Y2997381D01*
G01X14488563Y2985951D01*
G01X14499993Y2980109D01*
G01X14517011Y2980109D01*
G01X14528441Y2985951D01*
G01X14539871Y2997381D01*
G01X14545713Y3014399D01*
G01X14545713Y3025829D01*
G01X14539871Y3043101D01*
G01X14528441Y3054531D01*
G01X14517011Y3060119D01*
G01X14499993Y3060119D01*
G01X14593465Y3060119D02*
G01X14593465Y2980109D01*
G01X14593465Y3037259D02*
G01X14610737Y3054531D01*
G01X14622167Y3060119D01*
G01X14639185Y3060119D01*
G01X14650615Y3054531D01*
G01X14656457Y3037259D01*
G01X14656457Y2980109D01*
G01X14656457Y3037259D02*
G01X14673475Y3054531D01*
G01X14684905Y3060119D01*
G01X14702177Y3060119D01*
G01X14713607Y3054531D01*
G01X14719195Y3037259D01*
G01X14719195Y2980109D01*
G01X14894963Y3100251D02*
G01X14894963Y2980109D01*
G01X14894963Y2980109D02*
G01X14963543Y2980109D01*
G01X15079875Y3060119D02*
G01X15079875Y2980109D01*
G01X15079875Y3043101D02*
G01X15068445Y3054531D01*
G01X15057015Y3060119D01*
G01X15039997Y3060119D01*
G01X15028567Y3054531D01*
G01X15017137Y3043101D01*
G01X15011295Y3025829D01*
G01X15011295Y3014399D01*
G01X15017137Y2997381D01*
G01X15028567Y2985951D01*
G01X15039997Y2980109D01*
G01X15057015Y2980109D01*
G01X15068445Y2985951D01*
G01X15079875Y2997381D01*
G01X15133469Y3060119D02*
G01X15167759Y2980109D01*
G01X15202049Y3060119D02*
G01X15167759Y2980109D01*
G01X15156329Y2957249D01*
G01X15144899Y2945819D01*
G01X15133469Y2940231D01*
G01X15127627Y2940231D01*
G01X15249801Y3025829D02*
G01X15318381Y3025829D01*
G01X15318381Y3037259D01*
G01X15312793Y3048689D01*
G01X15306951Y3054531D01*
G01X15295521Y3060119D01*
G01X15278503Y3060119D01*
G01X15267073Y3054531D01*
G01X15255643Y3043101D01*
G01X15249801Y3025829D01*
G01X15249801Y3014399D01*
G01X15255643Y2997381D01*
G01X15267073Y2985951D01*
G01X15278503Y2980109D01*
G01X15295521Y2980109D01*
G01X15306951Y2985951D01*
G01X15318381Y2997381D01*
G01X15366133Y3060119D02*
G01X15366133Y2980109D01*
G01X15366133Y3025829D02*
G01X15371975Y3043101D01*
G01X15383405Y3054531D01*
G01X15394835Y3060119D01*
G01X15411853Y3060119D01*

G04 Image Start*
G36*
G01X-246831Y2872801D02*
G01X-254571Y2872213D01*
G01X-262414Y2872014D01*
G01X-270257Y2872213D01*
G01X-277998Y2872801D01*
G01X-285625Y2873770D01*
G01X-293130Y2875110D01*
G01X-307736Y2878865D01*
G01X-321738Y2883990D01*
G01X-335060Y2890407D01*
G01X-347626Y2898040D01*
G01X-359358Y2906813D01*
G01X-370180Y2916648D01*
G01X-380016Y2927471D01*
G01X-388789Y2939203D01*
G01X-396422Y2951768D01*
G01X-402839Y2965090D01*
G01X-407963Y2979092D01*
G01X-411718Y2993698D01*
G01X-413058Y3001204D01*
G01X-414028Y3008831D01*
G01X-414616Y3016571D01*
G01X-414814Y3024414D01*
G01X-389414Y3024414D01*
G01X-388757Y3011448D01*
G01X-386830Y2998852D01*
G01X-383695Y2986690D01*
G01X-379418Y2975028D01*
G01X-374063Y2963928D01*
G01X-367695Y2953457D01*
G01X-360377Y2943677D01*
G01X-352175Y2934654D01*
G01X-343151Y2926451D01*
G01X-333372Y2919134D01*
G01X-322900Y2912765D01*
G01X-311801Y2907410D01*
G01X-300138Y2903134D01*
G01X-287977Y2899999D01*
G01X-287977Y2899999D01*
G01X-275381Y2898071D01*
G01X-262414Y2897414D01*
G01X-249448Y2898071D01*
G01X-236852Y2899999D01*
G01X-224690Y2903134D01*
G01X-213028Y2907410D01*
G01X-201928Y2912765D01*
G01X-191457Y2919134D01*
G01X-181677Y2926451D01*
G01X-172654Y2934654D01*
G01X-164451Y2943677D01*
G01X-157134Y2953457D01*
G01X-150765Y2963928D01*
G01X-145410Y2975028D01*
G01X-141134Y2986690D01*
G01X-137999Y2998852D01*
G01X-136071Y3011448D01*
G01X-135414Y3024414D01*
G01X-136071Y3037381D01*
G01X-137999Y3049977D01*
G01X-141134Y3062138D01*
G01X-145410Y3073801D01*
G01X-150765Y3084900D01*
G01X-157134Y3095372D01*
G01X-164451Y3105151D01*
G01X-172654Y3114175D01*
G01X-181677Y3122377D01*
G01X-191457Y3129695D01*
G01X-201928Y3136063D01*
G01X-213028Y3141418D01*
G01X-224690Y3145695D01*
G01X-236852Y3148829D01*
G01X-249448Y3150757D01*
G01X-262414Y3151414D01*
G01X-275381Y3150757D01*
G01X-287977Y3148829D01*
G01X-300138Y3145695D01*
G01X-311801Y3141418D01*
G01X-322900Y3136063D01*
G01X-333372Y3129695D01*
G01X-343151Y3122377D01*
G01X-352175Y3114175D01*
G01X-360377Y3105151D01*
G01X-367695Y3095372D01*
G01X-374063Y3084900D01*
G01X-379418Y3073801D01*
G01X-383695Y3062138D01*
G01X-386830Y3049977D01*
G01X-388757Y3037381D01*
G01X-389414Y3024414D01*
G01X-414814Y3024414D01*
G01X-414616Y3032257D01*
G01X-414028Y3039998D01*
G01X-413058Y3047625D01*
G01X-411718Y3055130D01*
G01X-407963Y3069736D01*
G01X-402839Y3083738D01*
G01X-396422Y3097060D01*
G01X-388789Y3109626D01*
G01X-380016Y3121358D01*
G01X-370180Y3132180D01*
G01X-359358Y3142016D01*
G01X-347626Y3150789D01*
G01X-335060Y3158422D01*
G01X-321738Y3164839D01*
G01X-307736Y3169963D01*
G01X-293130Y3173718D01*
G01X-285625Y3175058D01*
G01X-277998Y3176028D01*
G01X-270257Y3176616D01*
G01X-262414Y3176814D01*
G01X-254571Y3176616D01*
G01X-246831Y3176028D01*
G01X-239204Y3175058D01*
G01X-231698Y3173718D01*
G01X-217092Y3169963D01*
G01X-203090Y3164839D01*
G01X-189768Y3158422D01*
G01X-177203Y3150789D01*
G01X-165471Y3142016D01*
G01X-154648Y3132180D01*
G01X-144813Y3121358D01*
G01X-136040Y3109626D01*
G01X-128407Y3097060D01*
G01X-121990Y3083738D01*
G01X-116865Y3069736D01*
G01X-113110Y3055130D01*
G01X-111770Y3047625D01*
G01X-110801Y3039998D01*
G01X-110213Y3032257D01*
G01X-110014Y3024414D01*
G01X-110213Y3016571D01*
G01X-110801Y3008831D01*
G01X-111770Y3001204D01*
G01X-113110Y2993698D01*
G01X-116865Y2979092D01*
G01X-121990Y2965090D01*
G01X-128407Y2951768D01*
G01X-136040Y2939203D01*
G01X-144813Y2927471D01*
G01X-154648Y2916648D01*
G01X-165471Y2906813D01*
G01X-177203Y2898040D01*
G01X-189768Y2890407D01*
G01X-203090Y2883990D01*
G01X-217092Y2878865D01*
G01X-231698Y2875110D01*
G01X-239204Y2873770D01*
G01X-246831Y2872801D01*
G37*
G36*
G01X-414814Y3757386D02*
G01X-135414Y3757386D01*
G01X-135414Y3477986D01*
G01X-414814Y3477986D01*
G01X-414814Y3731986D01*
G01X-389414Y3731986D01*
G01X-389414Y3503386D01*
G01X-160814Y3503386D01*
G01X-160814Y3731986D01*
G01X-160814Y3731986D01*
G01X-389414Y3731986D01*
G01X-414814Y3731986D01*
G01X-414814Y3757386D01*
G37*

G04 PolygonModel Start*
G54D13*
G01X-705100Y2741386D02*
G01X16002585Y2741386D01*
G01X-705100Y3321957D02*
G01X16002585Y3321957D01*
G01X-705100Y3902529D02*
G01X16002585Y3902529D01*
G01X-705100Y4483100D02*
G01X16002585Y4483100D01*
G01X-705100Y4483100D02*
G01X-705100Y2766786D01*
G01X746329Y4483100D02*
G01X746329Y2766786D01*
G01X2160492Y4483100D02*
G01X2160492Y2766786D01*
G01X6043281Y4483100D02*
G01X6043281Y2766786D01*
G01X7504688Y4483100D02*
G01X7504688Y2766786D01*
G01X8935869Y4483100D02*
G01X8935869Y2766786D01*
G01X10605048Y4483100D02*
G01X10605048Y2766786D01*
G01X12524417Y4483100D02*
G01X12524417Y2766786D01*
G01X16002585Y4483100D02*
G01X16002585Y2766786D01*

M02*

